<svg xmlns="http://www.w3.org/2000/svg" width="32" height="32" fill="none"><path fill="url(#a)" d="m28.865 21.822-4.525-.517a3.546 3.546 0 0 0-2.921 1.016l-3.278 3.277A26.801 26.801 0 0 1 6.4 13.86l3.296-3.296a3.546 3.546 0 0 0 1.016-2.92l-.517-4.49A3.565 3.565 0 0 0 6.65 0H3.569C1.556 0-.118 1.674.007 3.687.95 18.9 13.117 31.05 28.312 31.994c2.013.124 3.688-1.55 3.688-3.563v-3.082c.018-1.8-1.336-3.313-3.135-3.527Z"/><defs><linearGradient id="a" x1="16" x2="16" y1="0" y2="32" gradientUnits="userSpaceOnUse"><stop stop-color="#2e332e"/><stop offset="1" stop-color="#286428"/></linearGradient></defs></svg>