<svg xmlns="http://www.w3.org/2000/svg" width="41" height="51" fill="none"><path fill="url(#a)" d="M20.5 0C9.738 0 0 8.346 0 21.253c0 8.242 6.278 17.935 18.809 29.105a2.584 2.584 0 0 0 3.408 0C34.722 39.188 41 29.495 41 21.253 41 8.346 31.262 0 20.5 0Zm0 25.918c-2.819 0-5.125-2.333-5.125-5.184 0-2.85 2.306-5.183 5.125-5.183s5.125 2.332 5.125 5.183-2.306 5.184-5.125 5.184Z"/><defs><linearGradient id="a" x1="20.5" x2="20.5" y1="0" y2="51" gradientUnits="userSpaceOnUse"><stop stop-color="#2e332e"/><stop offset="1" stop-color="#286428"/></linearGradient></defs></svg>