<svg width="32" height="32" viewBox="0 0 32 32" fill="none" xmlns="http://www.w3.org/2000/svg">
<path d="M12.3933 17.9719C12.5148 17.9719 12.6669 17.9719 12.7886 18.0022C13.1229 16.9382 14.0043 16.148 15.0987 15.9353C14.9772 15.3882 14.7946 14.7195 14.6123 13.9899C11.9678 14.0507 9.04957 11.4972 9.11036 8.51832C9.14068 5.84329 10.9646 3.86751 13.4268 2.04367C13.5788 1.92217 13.7915 2.07399 13.7612 2.25655C13.1227 5.90419 16.6489 5.60038 18.0473 8.51842C18.9287 10.3727 17.8649 12.2573 16.2842 13.1995C15.4634 11.2541 14.2779 9.27836 13.5789 7.97116C14.2779 9.85575 15.6458 13.7467 16.1322 15.9049C17.105 16.0569 17.9561 16.6648 18.3816 17.5462C18.7463 17.3942 19.1416 17.303 19.5368 17.303C21.0263 17.303 22.2422 18.3671 22.4854 19.7652L9.62724 19.7656C10.0833 18.7319 11.1471 17.972 12.3935 17.972L12.3933 17.9719Z" fill="#A3CC28"/>
<path d="M7.86414 20.8292H24.1572C24.7042 20.8292 25.0994 21.3156 24.9779 21.8627L23.0934 30.1916C23.0022 30.5868 22.6678 30.8603 22.2726 30.8603H9.71844C9.3232 30.8603 8.98884 30.5868 8.89765 30.1916L7.01307 21.8627C6.92189 21.346 7.31713 20.8292 7.86441 20.8292H7.86414Z" fill="#7F5633"/>
</svg>
