<svg width="123" height="45" viewBox="0 0 123 45" fill="none" xmlns="http://www.w3.org/2000/svg">
<g filter="url(#filter0_i_405_7)">
<path d="M19.9182 25.13C19.7356 25.13 19.5073 25.13 19.3245 25.1761C18.8221 23.5588 17.4979 22.3577 15.8539 22.0345C16.0365 21.203 16.3109 20.1865 16.5847 19.0775C20.5576 19.17 24.9418 15.2887 24.8502 10.761C24.8047 6.69513 22.0646 3.69204 18.3657 0.919887C18.1374 0.735217 17.8178 0.965973 17.8633 1.24346C18.8224 6.78769 13.5251 6.32591 11.4243 10.7612C10.1001 13.5795 11.6982 16.444 14.073 17.8762C15.306 14.9193 17.0871 11.9163 18.1371 9.92939C17.0871 12.7939 15.0321 18.7079 14.3014 21.9883C12.8399 22.2193 11.5612 23.1433 10.922 24.483C10.3741 24.2519 9.78031 24.1134 9.18656 24.1134C6.94883 24.1134 5.12226 25.7306 4.75692 27.8557L24.0737 27.8563C23.3887 26.2852 21.7905 25.13 19.9182 25.13Z" fill="#A3CC28"/>
</g>
<g filter="url(#filter1_i_405_7)">
<path d="M26.7225 29.4731H2.24536C1.42354 29.4731 0.829791 30.2125 1.01229 31.0439L3.84352 43.7034C3.98051 44.3043 4.48284 44.72 5.07662 44.72H23.9369C24.5306 44.72 25.033 44.304 25.1698 43.7034L28.0012 31.0439C28.1382 30.2585 27.5445 29.4731 26.7225 29.4731Z" fill="#7F5633"/>
</g>
<path d="M47.8 37.76C47.5733 37.76 47.2933 37.6667 46.96 37.48V37.46C46.6 37.3 46.3467 37.0067 46.2 36.58C46.1067 36.2333 46.02 35.8267 45.94 35.36C45.8867 35.04 45.8533 34.8533 45.84 34.8H45.02C44.3133 34.3333 43.7933 33.72 43.46 32.96C43.3133 32.64 43.1933 32.2733 43.1 31.86C43.0067 31.4467 42.9467 31.04 42.92 30.64C42.8933 30.4 42.88 29.9867 42.88 29.4L42.92 27.76C42.96 27.04 42.98 26.5 42.98 26.14L42.96 25.5V24.72C42.96 23.92 42.9867 23.28 43.04 22.8C43.12 22.1333 43.26 21.5267 43.46 20.98C43.6733 20.4067 43.9933 20.0067 44.42 19.78C44.6467 19.66 44.8933 19.6 45.16 19.6C45.52 19.6 45.8533 19.6733 46.16 19.82C46.4667 19.9667 46.7333 20.1667 46.96 20.42C47.32 20.8467 47.6133 21.54 47.84 22.5C48 23.3667 48.0933 24.2467 48.12 25.14C48.1333 25.42 48.14 25.88 48.14 26.52V27.6C48.1267 27.9067 48.12 28.2267 48.12 28.56V29.46C48.12 30.66 48.04 31.5933 47.88 32.26C47.7333 32.9267 47.4067 33.6133 46.9 34.32L46.98 34.72C47.06 35.24 47.1467 35.6467 47.24 35.94C47.3733 36.42 47.54 36.66 47.74 36.66H47.82C48.06 36.66 48.2467 36.6733 48.38 36.7C48.58 36.7667 48.68 36.9133 48.68 37.14C48.68 37.5533 48.3867 37.76 47.8 37.76ZM45.74 34.2C45.8333 34.0267 46.0133 33.94 46.28 33.94V33.96C46.7733 33.5067 47.02 32.7867 47.02 31.8V26.42C47.02 25.5667 47 24.8533 46.96 24.28C46.9067 23.5333 46.7867 22.8333 46.6 22.18C46.5067 21.8467 46.3867 21.5733 46.24 21.36C46.1067 21.1467 45.9333 20.9667 45.72 20.82C45.4933 20.6733 45.2533 20.6 45 20.6C44.76 20.6 44.56 20.9467 44.4 21.64C44.1333 22.6933 43.9667 24.4133 43.9 26.8C43.8733 27.7333 43.86 28.34 43.86 28.62C43.86 29.1933 43.8933 29.8533 43.96 30.6C44.0267 31.4133 44.2 32.2 44.48 32.96C44.6133 33.3333 44.7867 33.6333 45 33.86C45.2133 34.0733 45.46 34.1933 45.74 34.22V34.2ZM53.3288 35.3C53.0088 35.3 52.7221 35.2267 52.4688 35.08C52.2154 34.9467 52.0088 34.7467 51.8488 34.48C51.5288 33.92 51.3221 33.2867 51.2288 32.58C51.1354 31.9667 51.0888 31.2333 51.0888 30.38C51.0488 28.94 51.0288 27.18 51.0288 25.1L51.0088 23.56C50.9954 23.48 50.9888 23.3467 50.9888 23.16C50.9621 22.6533 50.9488 22.3467 50.9488 22.24C51.0688 21.96 51.2088 21.82 51.3688 21.82C51.5288 21.82 51.6688 21.94 51.7888 22.18C51.9221 22.42 51.9888 22.68 51.9888 22.96V28.4C51.9888 28.9333 52.0354 29.64 52.1288 30.52C52.2221 31.6133 52.2688 32.32 52.2688 32.64C52.2688 33.6267 52.6888 34.12 53.5288 34.12C54.4888 34.12 54.9688 30.5333 54.9688 23.36V22.24V22.06C54.9554 22.02 54.9488 21.9667 54.9488 21.9C54.9488 21.74 54.9821 21.6267 55.0488 21.56C55.1288 21.48 55.2754 21.44 55.4888 21.44C55.6621 21.44 55.7954 21.4933 55.8888 21.6C55.9954 21.6933 56.0621 21.8067 56.0888 21.94C56.1021 22.02 56.1088 22.1733 56.1088 22.4C56.1088 22.6133 56.0888 22.9533 56.0488 23.42C55.9954 23.8067 55.9688 24.14 55.9688 24.42C55.9688 24.7267 55.9554 25 55.9288 25.24L55.8888 26.08V26.24C55.9021 26.2933 55.9088 26.3533 55.9088 26.42C55.9088 32.34 55.0488 35.3 53.3288 35.3ZM59.5353 35.12C59.282 35.12 59.062 35.0867 58.8753 35.02C58.6486 34.9533 58.5353 34.7667 58.5353 34.46V22.84C58.5353 22.6133 58.4953 22.2733 58.4153 21.82C58.322 21.4067 58.2753 21.0667 58.2753 20.8V20.74C58.502 20.3667 58.6686 20.1267 58.7753 20.02C58.962 20.02 59.2086 19.9933 59.5153 19.94C59.7953 19.8867 60.042 19.86 60.2553 19.86C60.4686 19.86 60.6753 19.9267 60.8753 20.06C61.0753 20.18 61.1753 20.3267 61.1753 20.5C61.1753 20.9 60.8686 21.1 60.2553 21.1H59.9753C59.8953 21.0867 59.802 21.08 59.6953 21.08C59.5753 21.08 59.502 21.0867 59.4753 21.1C59.4753 21.5533 59.502 22.1 59.5553 22.74L59.5953 23.3L59.6353 24.4C59.6353 24.6533 59.6153 25.04 59.5753 25.56L59.5353 26.68L59.8153 26.62C60.082 26.54 60.302 26.5 60.4753 26.5C60.622 26.5 60.7553 26.56 60.8753 26.68C60.9953 26.7867 61.0553 26.9133 61.0553 27.06C61.0553 27.22 61.002 27.3667 60.8953 27.5C60.802 27.62 60.682 27.68 60.5353 27.68L60.2953 27.66H60.0353C59.8353 27.66 59.6953 27.7067 59.6153 27.8V33.98L60.7353 33.92C61.4953 33.92 61.8753 34.0933 61.8753 34.44V34.52C61.7953 34.68 61.6486 34.8133 61.4353 34.92C61.222 35.0133 61.0153 35.0733 60.8153 35.1L60.1553 35.12H59.5353ZM67.6617 35.2C67.4084 35.2 67.1617 35.02 66.9217 34.66V34.6C66.8817 33.8933 66.7617 33.1067 66.5617 32.24C66.3617 31.3733 66.0684 30.3267 65.6817 29.1C65.3884 28.18 65.1417 27.3533 64.9417 26.62V34.5C64.9417 34.7133 64.9017 34.8733 64.8217 34.98C64.7551 35.0733 64.6151 35.12 64.4017 35.12C64.2417 35.12 64.1151 35.0733 64.0217 34.98C63.9284 34.8733 63.8817 34.74 63.8817 34.58V34.42L63.9217 28.54C63.9484 26.8067 63.9617 24.8533 63.9617 22.68V20.22C63.9617 20.06 63.9951 19.9533 64.0617 19.9C64.1284 19.8333 64.2684 19.8 64.4817 19.8C64.8151 19.8 65.1217 19.8667 65.4017 20C65.6817 20.12 65.9217 20.2933 66.1217 20.52C66.5351 20.9867 66.8017 21.5467 66.9217 22.2C66.9751 22.4667 67.0017 22.7733 67.0017 23.12C67.0017 23.32 66.9817 23.54 66.9417 23.78C66.9151 24.02 66.8951 24.1733 66.8817 24.24C66.8551 24.3733 66.7951 24.5733 66.7017 24.84C66.6084 25.1067 66.5484 25.28 66.5217 25.36L66.2817 25.92L66.0817 26.44C66.0951 26.92 66.1751 27.5267 66.3217 28.26C66.4817 28.9933 66.6551 29.6733 66.8417 30.3C66.9751 30.74 67.2151 31.4733 67.5617 32.5L68.1417 34.26V34.3C68.1417 34.5267 68.1217 34.72 68.0817 34.88C68.0417 35.0933 67.9017 35.2 67.6617 35.2ZM64.9017 25.72C65.0884 25.5333 65.3151 25.2733 65.5817 24.94L65.8817 23.22C65.8951 23.1533 65.9017 23.06 65.9017 22.94C65.9017 22.5533 65.8284 22.1067 65.6817 21.6C65.6017 21.36 65.4951 21.16 65.3617 21C65.2417 20.8267 65.1151 20.7333 64.9817 20.72L64.9417 22.72C64.9017 23.6133 64.8817 24.3067 64.8817 24.8C64.8817 25.2667 64.8884 25.5733 64.9017 25.72ZM74.0753 35.1C73.9286 35.1 73.8086 35.04 73.7153 34.92C73.6353 34.7867 73.5953 34.6267 73.5953 34.44L73.6353 31.08C73.6753 29.4533 73.6953 28.1933 73.6953 27.3C73.6953 24.1933 73.522 21.8133 73.1753 20.16C73.3753 19.8533 73.6286 19.7 73.9353 19.7C74.4286 19.7 74.8753 19.8133 75.2753 20.04C75.6886 20.2533 76.0286 20.5467 76.2953 20.92C76.8153 21.6933 77.0753 22.56 77.0753 23.52C77.0753 24.52 76.862 25.4133 76.4353 26.2C76.0086 26.9867 75.3886 27.6 74.5753 28.04L74.6153 30.06L74.6553 31.12C74.6686 31.3467 74.6753 31.6733 74.6753 32.1C74.7153 32.9933 74.7353 33.72 74.7353 34.28C74.7353 34.5333 74.682 34.7333 74.5753 34.88C74.4686 35.0267 74.302 35.1 74.0753 35.1ZM74.5353 27.08C75.0553 26.5867 75.4353 26.0733 75.6753 25.54C75.9286 24.9933 76.0553 24.38 76.0553 23.7V23.68C76.0553 23.3733 76.022 22.9867 75.9553 22.52C75.9153 22.36 75.842 22.2 75.7353 22.04C75.6286 21.88 75.5686 21.7867 75.5553 21.76C75.462 21.6267 75.2153 21.42 74.8153 21.14L74.2953 20.76C74.2953 21.44 74.3353 22.4933 74.4153 23.92L74.5353 27.08ZM80.077 35.22C79.9037 35.22 79.7437 35.1533 79.597 35.02C79.4637 34.9 79.397 34.7533 79.397 34.58C79.397 34.46 79.4237 34.3133 79.477 34.14C79.517 33.9533 79.537 33.8133 79.537 33.72C79.537 32.5333 79.4704 30.2533 79.337 26.88C79.2037 24 79.137 21.7267 79.137 20.06C79.137 19.94 79.1837 19.8467 79.277 19.78C79.3704 19.7 79.4837 19.66 79.617 19.66C79.777 19.66 79.917 19.72 80.037 19.84C80.157 19.9467 80.217 20.08 80.217 20.24C80.217 21.04 80.257 22.24 80.337 23.84C80.4037 25.6133 80.437 26.8133 80.437 27.44L80.457 27.68V27.92V28.06V28.16C80.497 29.32 80.517 31.0533 80.517 33.36V33.88H82.057C82.337 34.08 82.477 34.28 82.477 34.48C82.477 34.6267 82.4237 34.76 82.317 34.88C82.2237 34.9867 82.1104 35.04 81.977 35.04C81.937 35.04 81.8637 35.0267 81.757 35L81.677 34.98C81.597 34.9933 81.4704 35 81.297 35H80.957C80.8637 34.9867 80.757 34.98 80.637 34.98C80.5037 35.14 80.317 35.22 80.077 35.22ZM88.117 35C87.9037 35 87.7437 34.96 87.637 34.88C87.5437 34.8 87.497 34.6667 87.497 34.48V31.86C87.3237 31.74 86.997 31.6333 86.517 31.54C86.037 31.4467 85.5837 31.3867 85.157 31.36C85.0104 31.64 84.9037 31.98 84.837 32.38L84.757 32.78C84.7437 32.8733 84.7037 33.08 84.637 33.4C84.5704 33.72 84.497 34 84.417 34.24C84.337 34.4667 84.257 34.6467 84.177 34.78C83.6704 34.78 83.377 34.6467 83.297 34.38C83.4437 34.1667 83.6104 33.54 83.797 32.5L84.457 28.84C84.7504 27.1067 85.017 25.6267 85.257 24.4C85.5104 23.1733 85.777 22.1467 86.057 21.32C86.3637 20.4 86.657 19.94 86.937 19.94C87.217 19.94 87.4304 19.9933 87.577 20.1C87.577 20.6333 87.7037 21.92 87.957 23.96C88.2237 25.96 88.357 27.3267 88.357 28.06C88.357 28.7667 88.4304 29.78 88.577 31.1C88.7104 32.4467 88.777 33.52 88.777 34.32C88.777 34.7733 88.557 35 88.117 35ZM87.077 30.7C87.1837 30.7 87.317 30.68 87.477 30.64C87.437 30.0533 87.3704 29.3267 87.277 28.46C86.9704 25.4467 86.817 23.6 86.817 22.92V22.76C86.6837 22.8933 86.497 23.5 86.257 24.58C86.0304 25.6467 85.817 26.7933 85.617 28.02C85.417 29.2467 85.3104 30.06 85.297 30.46C85.857 30.62 86.4504 30.7 87.077 30.7ZM96.0892 35.3C95.8226 35.3 95.2759 33.9267 94.4492 31.18C93.5159 27.9667 92.7092 25.0133 92.0292 22.32V28.88C92.0292 29.44 92.0826 30.3933 92.1892 31.74C92.2826 33.2067 92.3292 34.1533 92.3292 34.58C92.3292 34.7 92.2559 34.8067 92.1092 34.9C91.9626 34.98 91.7959 35.02 91.6092 35.02C91.3292 35.02 91.1892 34.9133 91.1892 34.7L91.2292 34.12C91.2559 33.6933 91.2692 33.4133 91.2692 33.28C91.2692 32.5733 91.2292 31.4533 91.1492 29.92C91.0692 28.36 91.0292 27.4133 91.0292 27.08V24.52C91.0292 24.1067 91.0492 23.4933 91.0892 22.68C91.1426 21.9733 91.1692 21.36 91.1692 20.84V20.72C91.1692 20.0533 91.3159 19.72 91.6092 19.72C91.7826 19.72 92.0026 20.0133 92.2692 20.6C92.7092 21.56 93.2692 23.28 93.9492 25.76C94.3359 27.2 94.7892 29.0533 95.3092 31.32C95.2959 31.2667 95.4026 31.7267 95.6292 32.7L95.6492 32.8C95.6492 31.5067 95.6626 30.3467 95.6892 29.32L95.7292 25.84V19.92C95.7826 19.5867 95.9959 19.42 96.3692 19.42C96.7292 19.42 96.9092 19.68 96.9092 20.2V20.32C96.8292 20.48 96.7892 20.6733 96.7892 20.9C96.7892 21.7133 96.7692 22.94 96.7292 24.58C96.6892 26.2333 96.6692 27.4733 96.6692 28.3V34.4C96.6692 34.6133 96.6092 34.8133 96.4892 35C96.3826 35.2 96.2492 35.3 96.0892 35.3ZM100.891 35.14C100.691 35.14 100.531 35.0467 100.411 34.86C100.305 34.66 100.251 34.42 100.251 34.14C100.251 33.7 100.278 33.16 100.331 32.52L100.371 32L100.411 30.94C100.411 30.4733 100.365 29.4333 100.271 27.82C100.178 26.2067 100.131 25.1667 100.131 24.7C100.131 24.66 100.131 24.5867 100.131 24.48C100.145 24.36 100.151 24.18 100.151 23.94C100.165 23.6733 100.171 23.3467 100.171 22.96C100.171 21.9867 100.105 21.3667 99.9714 21.1C99.8914 21.1 99.7181 21.12 99.4514 21.16L98.8914 21.2C98.7181 21.2 98.5647 21.1533 98.4314 21.06C98.2981 20.9533 98.2314 20.82 98.2314 20.66C98.2314 20.5 98.3914 20.36 98.7114 20.24C99.1781 20.08 99.9714 19.9667 101.091 19.9C101.545 19.8733 101.818 19.86 101.911 19.86C102.071 19.86 102.218 19.9133 102.351 20.02C102.485 20.1267 102.551 20.26 102.551 20.42C102.551 20.58 102.491 20.7133 102.371 20.82C102.265 20.9133 102.125 20.96 101.951 20.96L101.591 20.94C101.485 20.9267 101.365 20.92 101.231 20.92H101.031C101.125 21.8267 101.171 22.6467 101.171 23.38L101.151 24.66C101.138 25.0467 101.131 25.48 101.131 25.96C101.131 26.6 101.158 27.3667 101.211 28.26C101.278 29.3667 101.311 30.1333 101.311 30.56C101.311 31.0667 101.338 31.6667 101.391 32.36C101.445 33.0667 101.471 33.6667 101.471 34.16C101.471 34.8133 101.278 35.14 100.891 35.14ZM108.195 35C107.982 35 107.822 34.96 107.715 34.88C107.622 34.8 107.575 34.6667 107.575 34.48V31.86C107.402 31.74 107.075 31.6333 106.595 31.54C106.115 31.4467 105.662 31.3867 105.235 31.36C105.088 31.64 104.982 31.98 104.915 32.38L104.835 32.78C104.822 32.8733 104.782 33.08 104.715 33.4C104.648 33.72 104.575 34 104.495 34.24C104.415 34.4667 104.335 34.6467 104.255 34.78C103.748 34.78 103.455 34.6467 103.375 34.38C103.522 34.1667 103.688 33.54 103.875 32.5L104.535 28.84C104.828 27.1067 105.095 25.6267 105.335 24.4C105.588 23.1733 105.855 22.1467 106.135 21.32C106.442 20.4 106.735 19.94 107.015 19.94C107.295 19.94 107.508 19.9933 107.655 20.1C107.655 20.6333 107.782 21.92 108.035 23.96C108.302 25.96 108.435 27.3267 108.435 28.06C108.435 28.7667 108.508 29.78 108.655 31.1C108.788 32.4467 108.855 33.52 108.855 34.32C108.855 34.7733 108.635 35 108.195 35ZM107.155 30.7C107.262 30.7 107.395 30.68 107.555 30.64C107.515 30.0533 107.448 29.3267 107.355 28.46C107.048 25.4467 106.895 23.6 106.895 22.92V22.76C106.762 22.8933 106.575 23.5 106.335 24.58C106.108 25.6467 105.895 26.7933 105.695 28.02C105.495 29.2467 105.388 30.06 105.375 30.46C105.935 30.62 106.528 30.7 107.155 30.7ZM114.927 35.2C114.674 35.2 114.427 35.02 114.187 34.66V34.6C114.147 33.8933 114.027 33.1067 113.827 32.24C113.627 31.3733 113.334 30.3267 112.947 29.1C112.654 28.18 112.407 27.3533 112.207 26.62V34.5C112.207 34.7133 112.167 34.8733 112.087 34.98C112.021 35.0733 111.881 35.12 111.667 35.12C111.507 35.12 111.381 35.0733 111.287 34.98C111.194 34.8733 111.147 34.74 111.147 34.58V34.42L111.187 28.54C111.214 26.8067 111.227 24.8533 111.227 22.68V20.22C111.227 20.06 111.261 19.9533 111.327 19.9C111.394 19.8333 111.534 19.8 111.747 19.8C112.081 19.8 112.387 19.8667 112.667 20C112.947 20.12 113.187 20.2933 113.387 20.52C113.801 20.9867 114.067 21.5467 114.187 22.2C114.241 22.4667 114.267 22.7733 114.267 23.12C114.267 23.32 114.247 23.54 114.207 23.78C114.181 24.02 114.161 24.1733 114.147 24.24C114.121 24.3733 114.061 24.5733 113.967 24.84C113.874 25.1067 113.814 25.28 113.787 25.36L113.547 25.92L113.347 26.44C113.361 26.92 113.441 27.5267 113.587 28.26C113.747 28.9933 113.921 29.6733 114.107 30.3C114.241 30.74 114.481 31.4733 114.827 32.5L115.407 34.26V34.3C115.407 34.5267 115.387 34.72 115.347 34.88C115.307 35.0933 115.167 35.2 114.927 35.2ZM112.167 25.72C112.354 25.5333 112.581 25.2733 112.847 24.94L113.147 23.22C113.161 23.1533 113.167 23.06 113.167 22.94C113.167 22.5533 113.094 22.1067 112.947 21.6C112.867 21.36 112.761 21.16 112.627 21C112.507 20.8267 112.381 20.7333 112.247 20.72L112.207 22.72C112.167 23.6133 112.147 24.3067 112.147 24.8C112.147 25.2667 112.154 25.5733 112.167 25.72ZM118.349 32.82C118.082 32.82 117.922 32.6733 117.869 32.38C117.869 31.5667 117.929 30.68 118.049 29.72C118.182 28.76 118.369 27.5933 118.609 26.22L118.709 25.64C118.895 24.48 118.989 23.5067 118.989 22.72C118.989 21.48 118.789 20.86 118.389 20.86C118.135 20.86 118.009 21.16 118.009 21.76C118.009 21.9067 118.055 22.2667 118.149 22.84C118.149 22.8533 118.115 22.8933 118.049 22.96C117.822 23.16 117.655 23.26 117.549 23.26C117.175 23.26 116.989 22.8133 116.989 21.92V21.72C116.989 21.3733 117.022 21.08 117.089 20.84C117.169 20.5867 117.309 20.3667 117.509 20.18C117.735 19.9933 118.015 19.9 118.349 19.9C118.642 19.9 118.895 19.9533 119.109 20.06C119.322 20.1667 119.495 20.3133 119.629 20.5C119.842 20.82 119.975 21.2933 120.029 21.92C120.042 22.0667 120.049 22.3267 120.049 22.7C120.049 23.8733 119.849 25.1533 119.449 26.54C119.275 27.1133 119.129 27.84 119.009 28.72C118.889 29.5867 118.829 30.4867 118.829 31.42C118.829 32.1533 118.835 32.6 118.849 32.76C118.609 32.76 118.475 32.7733 118.449 32.8C118.422 32.8133 118.389 32.82 118.349 32.82ZM118.349 35.08C118.149 35.08 117.989 35 117.869 34.84C117.722 34.7067 117.649 34.54 117.649 34.34C117.649 34.1533 117.729 33.98 117.889 33.82C118.049 33.6467 118.229 33.56 118.429 33.56C118.589 33.56 118.749 33.6467 118.909 33.82C119.069 33.9933 119.149 34.16 119.149 34.32C119.149 34.8267 118.882 35.08 118.349 35.08Z" fill="white"/>
<defs>
<filter id="filter0_i_405_7" x="4.75692" y="0.853516" width="20.0947" height="31.0029" filterUnits="userSpaceOnUse" color-interpolation-filters="sRGB">
<feFlood flood-opacity="0" result="BackgroundImageFix"/>
<feBlend mode="normal" in="SourceGraphic" in2="BackgroundImageFix" result="shape"/>
<feColorMatrix in="SourceAlpha" type="matrix" values="0 0 0 0 0 0 0 0 0 0 0 0 0 0 0 0 0 0 127 0" result="hardAlpha"/>
<feOffset dy="4"/>
<feGaussianBlur stdDeviation="2"/>
<feComposite in2="hardAlpha" operator="arithmetic" k2="-1" k3="1"/>
<feColorMatrix type="matrix" values="0 0 0 0 0 0 0 0 0 0 0 0 0 0 0 0 0 0 0.2 0"/>
<feBlend mode="normal" in2="shape" result="effect1_innerShadow_405_7"/>
</filter>
<filter id="filter1_i_405_7" x="0.97916" y="29.4731" width="27.0417" height="19.2471" filterUnits="userSpaceOnUse" color-interpolation-filters="sRGB">
<feFlood flood-opacity="0" result="BackgroundImageFix"/>
<feBlend mode="normal" in="SourceGraphic" in2="BackgroundImageFix" result="shape"/>
<feColorMatrix in="SourceAlpha" type="matrix" values="0 0 0 0 0 0 0 0 0 0 0 0 0 0 0 0 0 0 127 0" result="hardAlpha"/>
<feOffset dy="4"/>
<feGaussianBlur stdDeviation="2"/>
<feComposite in2="hardAlpha" operator="arithmetic" k2="-1" k3="1"/>
<feColorMatrix type="matrix" values="0 0 0 0 0 0 0 0 0 0 0 0 0 0 0 0 0 0 0.2 0"/>
<feBlend mode="normal" in2="shape" result="effect1_innerShadow_405_7"/>
</filter>
</defs>
</svg>
