<svg width="79" height="19" viewBox="0 0 79 19" fill="none" xmlns="http://www.w3.org/2000/svg">
<path d="M5.8 18.76C5.57333 18.76 5.29333 18.6667 4.96 18.48V18.46C4.6 18.3 4.34667 18.0067 4.2 17.58C4.10667 17.2333 4.02 16.8267 3.94 16.36C3.88667 16.04 3.85333 15.8533 3.84 15.8H3.02C2.31333 15.3333 1.79333 14.72 1.46 13.96C1.31333 13.64 1.19333 13.2733 1.1 12.86C1.00667 12.4467 0.946667 12.04 0.92 11.64C0.893333 11.4 0.88 10.9867 0.88 10.4L0.92 8.76C0.96 8.04 0.98 7.5 0.98 7.14L0.96 6.5V5.72C0.96 4.92 0.986667 4.28 1.04 3.8C1.12 3.13333 1.26 2.52667 1.46 1.98C1.67333 1.40667 1.99333 1.00667 2.42 0.779999C2.64667 0.659999 2.89333 0.599999 3.16 0.599999C3.52 0.599999 3.85333 0.673332 4.16 0.819999C4.46667 0.966666 4.73333 1.16667 4.96 1.42C5.32 1.84667 5.61333 2.54 5.84 3.5C6 4.36667 6.09333 5.24667 6.12 6.14C6.13333 6.42 6.14 6.88 6.14 7.52V8.6C6.12667 8.90667 6.12 9.22667 6.12 9.56V10.46C6.12 11.66 6.04 12.5933 5.88 13.26C5.73333 13.9267 5.40667 14.6133 4.9 15.32L4.98 15.72C5.06 16.24 5.14667 16.6467 5.24 16.94C5.37333 17.42 5.54 17.66 5.74 17.66H5.82C6.06 17.66 6.24667 17.6733 6.38 17.7C6.58 17.7667 6.68 17.9133 6.68 18.14C6.68 18.5533 6.38667 18.76 5.8 18.76ZM3.74 15.2C3.83333 15.0267 4.01333 14.94 4.28 14.94V14.96C4.77333 14.5067 5.02 13.7867 5.02 12.8V7.42C5.02 6.56667 5 5.85333 4.96 5.28C4.90667 4.53333 4.78667 3.83333 4.6 3.18C4.50667 2.84667 4.38667 2.57333 4.24 2.36C4.10667 2.14667 3.93333 1.96667 3.72 1.82C3.49333 1.67333 3.25333 1.6 3 1.6C2.76 1.6 2.56 1.94667 2.4 2.64C2.13333 3.69333 1.96667 5.41333 1.9 7.8C1.87333 8.73333 1.86 9.34 1.86 9.62C1.86 10.1933 1.89333 10.8533 1.96 11.6C2.02667 12.4133 2.2 13.2 2.48 13.96C2.61333 14.3333 2.78667 14.6333 3 14.86C3.21333 15.0733 3.46 15.1933 3.74 15.22V15.2ZM11.3288 16.3C11.0088 16.3 10.7221 16.2267 10.4688 16.08C10.2154 15.9467 10.0088 15.7467 9.84875 15.48C9.52875 14.92 9.32208 14.2867 9.22875 13.58C9.13542 12.9667 9.08875 12.2333 9.08875 11.38C9.04875 9.94 9.02875 8.18 9.02875 6.1L9.00875 4.56C8.99542 4.48 8.98875 4.34667 8.98875 4.16C8.96208 3.65333 8.94875 3.34667 8.94875 3.24C9.06875 2.96 9.20875 2.82 9.36875 2.82C9.52875 2.82 9.66875 2.94 9.78875 3.18C9.92208 3.42 9.98875 3.68 9.98875 3.96V9.4C9.98875 9.93333 10.0354 10.64 10.1288 11.52C10.2221 12.6133 10.2688 13.32 10.2688 13.64C10.2688 14.6267 10.6888 15.12 11.5288 15.12C12.4888 15.12 12.9688 11.5333 12.9688 4.36V3.24V3.06C12.9554 3.02 12.9488 2.96667 12.9488 2.9C12.9488 2.74 12.9821 2.62667 13.0488 2.56C13.1288 2.48 13.2754 2.44 13.4888 2.44C13.6621 2.44 13.7954 2.49333 13.8888 2.6C13.9954 2.69333 14.0621 2.80667 14.0888 2.94C14.1021 3.02 14.1088 3.17333 14.1088 3.4C14.1088 3.61333 14.0888 3.95333 14.0488 4.42C13.9954 4.80667 13.9688 5.14 13.9688 5.42C13.9688 5.72667 13.9554 6 13.9288 6.24L13.8888 7.08V7.24C13.9021 7.29333 13.9088 7.35333 13.9088 7.42C13.9088 13.34 13.0488 16.3 11.3288 16.3ZM17.5353 16.12C17.282 16.12 17.062 16.0867 16.8753 16.02C16.6486 15.9533 16.5353 15.7667 16.5353 15.46V3.84C16.5353 3.61333 16.4953 3.27333 16.4153 2.82C16.322 2.40667 16.2753 2.06667 16.2753 1.8V1.74C16.502 1.36667 16.6686 1.12667 16.7753 1.02C16.962 1.02 17.2086 0.993333 17.5153 0.94C17.7953 0.886666 18.042 0.859999 18.2553 0.859999C18.4686 0.859999 18.6753 0.926666 18.8753 1.06C19.0753 1.18 19.1753 1.32667 19.1753 1.5C19.1753 1.9 18.8686 2.1 18.2553 2.1H17.9753C17.8953 2.08667 17.802 2.08 17.6953 2.08C17.5753 2.08 17.502 2.08667 17.4753 2.1C17.4753 2.55333 17.502 3.1 17.5553 3.74L17.5953 4.3L17.6353 5.4C17.6353 5.65333 17.6153 6.04 17.5753 6.56L17.5353 7.68L17.8153 7.62C18.082 7.54 18.302 7.5 18.4753 7.5C18.622 7.5 18.7553 7.56 18.8753 7.68C18.9953 7.78667 19.0553 7.91333 19.0553 8.06C19.0553 8.22 19.002 8.36667 18.8953 8.5C18.802 8.62 18.682 8.68 18.5353 8.68L18.2953 8.66H18.0353C17.8353 8.66 17.6953 8.70667 17.6153 8.8V14.98L18.7353 14.92C19.4953 14.92 19.8753 15.0933 19.8753 15.44V15.52C19.7953 15.68 19.6486 15.8133 19.4353 15.92C19.222 16.0133 19.0153 16.0733 18.8153 16.1L18.1553 16.12H17.5353ZM25.6617 16.2C25.4084 16.2 25.1617 16.02 24.9217 15.66V15.6C24.8817 14.8933 24.7617 14.1067 24.5617 13.24C24.3617 12.3733 24.0684 11.3267 23.6817 10.1C23.3884 9.18 23.1417 8.35333 22.9417 7.62V15.5C22.9417 15.7133 22.9017 15.8733 22.8217 15.98C22.7551 16.0733 22.6151 16.12 22.4017 16.12C22.2417 16.12 22.1151 16.0733 22.0217 15.98C21.9284 15.8733 21.8817 15.74 21.8817 15.58V15.42L21.9217 9.54C21.9484 7.80667 21.9617 5.85333 21.9617 3.68V1.22C21.9617 1.06 21.9951 0.953332 22.0617 0.899999C22.1284 0.833332 22.2684 0.799999 22.4817 0.799999C22.8151 0.799999 23.1217 0.866666 23.4017 0.999999C23.6817 1.12 23.9217 1.29333 24.1217 1.52C24.5351 1.98667 24.8017 2.54667 24.9217 3.2C24.9751 3.46667 25.0017 3.77333 25.0017 4.12C25.0017 4.32 24.9817 4.54 24.9417 4.78C24.9151 5.02 24.8951 5.17333 24.8817 5.24C24.8551 5.37333 24.7951 5.57333 24.7017 5.84C24.6084 6.10667 24.5484 6.28 24.5217 6.36L24.2817 6.92L24.0817 7.44C24.0951 7.92 24.1751 8.52667 24.3217 9.26C24.4817 9.99333 24.6551 10.6733 24.8417 11.3C24.9751 11.74 25.2151 12.4733 25.5617 13.5L26.1417 15.26V15.3C26.1417 15.5267 26.1217 15.72 26.0817 15.88C26.0417 16.0933 25.9017 16.2 25.6617 16.2ZM22.9017 6.72C23.0884 6.53333 23.3151 6.27333 23.5817 5.94L23.8817 4.22C23.8951 4.15333 23.9017 4.06 23.9017 3.94C23.9017 3.55333 23.8284 3.10667 23.6817 2.6C23.6017 2.36 23.4951 2.16 23.3617 2C23.2417 1.82667 23.1151 1.73333 22.9817 1.72L22.9417 3.72C22.9017 4.61333 22.8817 5.30667 22.8817 5.8C22.8817 6.26667 22.8884 6.57333 22.9017 6.72ZM32.0753 16.1C31.9286 16.1 31.8086 16.04 31.7153 15.92C31.6353 15.7867 31.5953 15.6267 31.5953 15.44L31.6353 12.08C31.6753 10.4533 31.6953 9.19333 31.6953 8.3C31.6953 5.19333 31.522 2.81333 31.1753 1.16C31.3753 0.853332 31.6286 0.699999 31.9353 0.699999C32.4286 0.699999 32.8753 0.813333 33.2753 1.04C33.6886 1.25333 34.0286 1.54667 34.2953 1.92C34.8153 2.69333 35.0753 3.56 35.0753 4.52C35.0753 5.52 34.862 6.41333 34.4353 7.2C34.0086 7.98667 33.3886 8.6 32.5753 9.04L32.6153 11.06L32.6553 12.12C32.6686 12.3467 32.6753 12.6733 32.6753 13.1C32.7153 13.9933 32.7353 14.72 32.7353 15.28C32.7353 15.5333 32.682 15.7333 32.5753 15.88C32.4686 16.0267 32.302 16.1 32.0753 16.1ZM32.5353 8.08C33.0553 7.58667 33.4353 7.07333 33.6753 6.54C33.9286 5.99333 34.0553 5.38 34.0553 4.7V4.68C34.0553 4.37333 34.022 3.98667 33.9553 3.52C33.9153 3.36 33.842 3.2 33.7353 3.04C33.6286 2.88 33.5686 2.78667 33.5553 2.76C33.462 2.62667 33.2153 2.42 32.8153 2.14L32.2953 1.76C32.2953 2.44 32.3353 3.49333 32.4153 4.92L32.5353 8.08ZM38.077 16.22C37.9037 16.22 37.7437 16.1533 37.597 16.02C37.4637 15.9 37.397 15.7533 37.397 15.58C37.397 15.46 37.4237 15.3133 37.477 15.14C37.517 14.9533 37.537 14.8133 37.537 14.72C37.537 13.5333 37.4704 11.2533 37.337 7.88C37.2037 5 37.137 2.72667 37.137 1.06C37.137 0.939999 37.1837 0.846666 37.277 0.779999C37.3704 0.699999 37.4837 0.66 37.617 0.66C37.777 0.66 37.917 0.72 38.037 0.84C38.157 0.946666 38.217 1.08 38.217 1.24C38.217 2.04 38.257 3.24 38.337 4.84C38.4037 6.61333 38.437 7.81333 38.437 8.44L38.457 8.68V8.92V9.06V9.16C38.497 10.32 38.517 12.0533 38.517 14.36V14.88H40.057C40.337 15.08 40.477 15.28 40.477 15.48C40.477 15.6267 40.4237 15.76 40.317 15.88C40.2237 15.9867 40.1104 16.04 39.977 16.04C39.937 16.04 39.8637 16.0267 39.757 16L39.677 15.98C39.597 15.9933 39.4704 16 39.297 16H38.957C38.8637 15.9867 38.757 15.98 38.637 15.98C38.5037 16.14 38.317 16.22 38.077 16.22ZM46.117 16C45.9037 16 45.7437 15.96 45.637 15.88C45.5437 15.8 45.497 15.6667 45.497 15.48V12.86C45.3237 12.74 44.997 12.6333 44.517 12.54C44.037 12.4467 43.5837 12.3867 43.157 12.36C43.0104 12.64 42.9037 12.98 42.837 13.38L42.757 13.78C42.7437 13.8733 42.7037 14.08 42.637 14.4C42.5704 14.72 42.497 15 42.417 15.24C42.337 15.4667 42.257 15.6467 42.177 15.78C41.6704 15.78 41.377 15.6467 41.297 15.38C41.4437 15.1667 41.6104 14.54 41.797 13.5L42.457 9.84C42.7504 8.10667 43.017 6.62667 43.257 5.4C43.5104 4.17333 43.777 3.14667 44.057 2.32C44.3637 1.4 44.657 0.94 44.937 0.94C45.217 0.94 45.4304 0.993333 45.577 1.1C45.577 1.63333 45.7037 2.92 45.957 4.96C46.2237 6.96 46.357 8.32667 46.357 9.06C46.357 9.76667 46.4304 10.78 46.577 12.1C46.7104 13.4467 46.777 14.52 46.777 15.32C46.777 15.7733 46.557 16 46.117 16ZM45.077 11.7C45.1837 11.7 45.317 11.68 45.477 11.64C45.437 11.0533 45.3704 10.3267 45.277 9.46C44.9704 6.44667 44.817 4.6 44.817 3.92V3.76C44.6837 3.89333 44.497 4.5 44.257 5.58C44.0304 6.64667 43.817 7.79333 43.617 9.02C43.417 10.2467 43.3104 11.06 43.297 11.46C43.857 11.62 44.4504 11.7 45.077 11.7ZM54.0892 16.3C53.8226 16.3 53.2759 14.9267 52.4492 12.18C51.5159 8.96667 50.7092 6.01333 50.0292 3.32V9.88C50.0292 10.44 50.0826 11.3933 50.1892 12.74C50.2826 14.2067 50.3292 15.1533 50.3292 15.58C50.3292 15.7 50.2559 15.8067 50.1092 15.9C49.9626 15.98 49.7959 16.02 49.6092 16.02C49.3292 16.02 49.1892 15.9133 49.1892 15.7L49.2292 15.12C49.2559 14.6933 49.2692 14.4133 49.2692 14.28C49.2692 13.5733 49.2292 12.4533 49.1492 10.92C49.0692 9.36 49.0292 8.41333 49.0292 8.08V5.52C49.0292 5.10667 49.0492 4.49333 49.0892 3.68C49.1426 2.97333 49.1692 2.36 49.1692 1.84V1.72C49.1692 1.05333 49.3159 0.719999 49.6092 0.719999C49.7826 0.719999 50.0026 1.01333 50.2692 1.6C50.7092 2.56 51.2692 4.28 51.9492 6.76C52.3359 8.2 52.7892 10.0533 53.3092 12.32C53.2959 12.2667 53.4026 12.7267 53.6292 13.7L53.6492 13.8C53.6492 12.5067 53.6626 11.3467 53.6892 10.32L53.7292 6.84V0.92C53.7826 0.586666 53.9959 0.419999 54.3692 0.419999C54.7292 0.419999 54.9092 0.679999 54.9092 1.2V1.32C54.8292 1.48 54.7892 1.67333 54.7892 1.9C54.7892 2.71333 54.7692 3.94 54.7292 5.58C54.6892 7.23333 54.6692 8.47333 54.6692 9.3V15.4C54.6692 15.6133 54.6092 15.8133 54.4892 16C54.3826 16.2 54.2492 16.3 54.0892 16.3ZM58.8914 16.14C58.6914 16.14 58.5314 16.0467 58.4114 15.86C58.3047 15.66 58.2514 15.42 58.2514 15.14C58.2514 14.7 58.2781 14.16 58.3314 13.52L58.3714 13L58.4114 11.94C58.4114 11.4733 58.3647 10.4333 58.2714 8.82C58.1781 7.20667 58.1314 6.16667 58.1314 5.7C58.1314 5.66 58.1314 5.58667 58.1314 5.48C58.1447 5.36 58.1514 5.18 58.1514 4.94C58.1647 4.67333 58.1714 4.34667 58.1714 3.96C58.1714 2.98667 58.1047 2.36667 57.9714 2.1C57.8914 2.1 57.7181 2.12 57.4514 2.16L56.8914 2.2C56.7181 2.2 56.5647 2.15333 56.4314 2.06C56.2981 1.95333 56.2314 1.82 56.2314 1.66C56.2314 1.5 56.3914 1.36 56.7114 1.24C57.1781 1.08 57.9714 0.966666 59.0914 0.899999C59.5447 0.873333 59.8181 0.859999 59.9114 0.859999C60.0714 0.859999 60.2181 0.913333 60.3514 1.02C60.4847 1.12667 60.5514 1.26 60.5514 1.42C60.5514 1.58 60.4914 1.71333 60.3714 1.82C60.2647 1.91333 60.1247 1.96 59.9514 1.96L59.5914 1.94C59.4847 1.92667 59.3647 1.92 59.2314 1.92H59.0314C59.1247 2.82667 59.1714 3.64667 59.1714 4.38L59.1514 5.66C59.1381 6.04667 59.1314 6.48 59.1314 6.96C59.1314 7.6 59.1581 8.36667 59.2114 9.26C59.2781 10.3667 59.3114 11.1333 59.3114 11.56C59.3114 12.0667 59.3381 12.6667 59.3914 13.36C59.4447 14.0667 59.4714 14.6667 59.4714 15.16C59.4714 15.8133 59.2781 16.14 58.8914 16.14ZM66.1952 16C65.9818 16 65.8218 15.96 65.7152 15.88C65.6218 15.8 65.5752 15.6667 65.5752 15.48V12.86C65.4018 12.74 65.0752 12.6333 64.5952 12.54C64.1152 12.4467 63.6618 12.3867 63.2352 12.36C63.0885 12.64 62.9818 12.98 62.9152 13.38L62.8352 13.78C62.8218 13.8733 62.7818 14.08 62.7152 14.4C62.6485 14.72 62.5752 15 62.4952 15.24C62.4152 15.4667 62.3352 15.6467 62.2552 15.78C61.7485 15.78 61.4552 15.6467 61.3752 15.38C61.5218 15.1667 61.6885 14.54 61.8752 13.5L62.5352 9.84C62.8285 8.10667 63.0952 6.62667 63.3352 5.4C63.5885 4.17333 63.8552 3.14667 64.1352 2.32C64.4418 1.4 64.7352 0.94 65.0152 0.94C65.2952 0.94 65.5085 0.993333 65.6552 1.1C65.6552 1.63333 65.7818 2.92 66.0352 4.96C66.3018 6.96 66.4352 8.32667 66.4352 9.06C66.4352 9.76667 66.5085 10.78 66.6552 12.1C66.7885 13.4467 66.8552 14.52 66.8552 15.32C66.8552 15.7733 66.6352 16 66.1952 16ZM65.1552 11.7C65.2618 11.7 65.3952 11.68 65.5552 11.64C65.5152 11.0533 65.4485 10.3267 65.3552 9.46C65.0485 6.44667 64.8952 4.6 64.8952 3.92V3.76C64.7618 3.89333 64.5752 4.5 64.3352 5.58C64.1085 6.64667 63.8952 7.79333 63.6952 9.02C63.4952 10.2467 63.3885 11.06 63.3752 11.46C63.9352 11.62 64.5285 11.7 65.1552 11.7ZM72.9273 16.2C72.674 16.2 72.4273 16.02 72.1873 15.66V15.6C72.1473 14.8933 72.0273 14.1067 71.8273 13.24C71.6273 12.3733 71.334 11.3267 70.9473 10.1C70.654 9.18 70.4073 8.35333 70.2073 7.62V15.5C70.2073 15.7133 70.1673 15.8733 70.0873 15.98C70.0207 16.0733 69.8807 16.12 69.6673 16.12C69.5073 16.12 69.3807 16.0733 69.2873 15.98C69.194 15.8733 69.1473 15.74 69.1473 15.58V15.42L69.1873 9.54C69.214 7.80667 69.2273 5.85333 69.2273 3.68V1.22C69.2273 1.06 69.2607 0.953332 69.3273 0.899999C69.394 0.833332 69.534 0.799999 69.7473 0.799999C70.0807 0.799999 70.3873 0.866666 70.6673 0.999999C70.9473 1.12 71.1873 1.29333 71.3873 1.52C71.8007 1.98667 72.0673 2.54667 72.1873 3.2C72.2407 3.46667 72.2673 3.77333 72.2673 4.12C72.2673 4.32 72.2473 4.54 72.2073 4.78C72.1807 5.02 72.1607 5.17333 72.1473 5.24C72.1207 5.37333 72.0607 5.57333 71.9673 5.84C71.874 6.10667 71.814 6.28 71.7873 6.36L71.5473 6.92L71.3473 7.44C71.3607 7.92 71.4407 8.52667 71.5873 9.26C71.7473 9.99333 71.9207 10.6733 72.1073 11.3C72.2407 11.74 72.4807 12.4733 72.8273 13.5L73.4073 15.26V15.3C73.4073 15.5267 73.3873 15.72 73.3473 15.88C73.3073 16.0933 73.1673 16.2 72.9273 16.2ZM70.1673 6.72C70.354 6.53333 70.5807 6.27333 70.8473 5.94L71.1473 4.22C71.1607 4.15333 71.1673 4.06 71.1673 3.94C71.1673 3.55333 71.094 3.10667 70.9473 2.6C70.8673 2.36 70.7607 2.16 70.6273 2C70.5073 1.82667 70.3807 1.73333 70.2473 1.72L70.2073 3.72C70.1673 4.61333 70.1473 5.30667 70.1473 5.8C70.1473 6.26667 70.154 6.57333 70.1673 6.72ZM76.3486 13.82C76.0819 13.82 75.9219 13.6733 75.8686 13.38C75.8686 12.5667 75.9286 11.68 76.0486 10.72C76.1819 9.76 76.3686 8.59333 76.6086 7.22L76.7086 6.64C76.8953 5.48 76.9886 4.50667 76.9886 3.72C76.9886 2.48 76.7886 1.86 76.3886 1.86C76.1353 1.86 76.0086 2.16 76.0086 2.76C76.0086 2.90667 76.0553 3.26667 76.1486 3.84C76.1486 3.85333 76.1153 3.89333 76.0486 3.96C75.8219 4.16 75.6553 4.26 75.5486 4.26C75.1753 4.26 74.9886 3.81333 74.9886 2.92V2.72C74.9886 2.37333 75.0219 2.08 75.0886 1.84C75.1686 1.58667 75.3086 1.36667 75.5086 1.18C75.7353 0.993332 76.0153 0.899999 76.3486 0.899999C76.6419 0.899999 76.8953 0.953332 77.1086 1.06C77.3219 1.16667 77.4953 1.31333 77.6286 1.5C77.8419 1.82 77.9753 2.29333 78.0286 2.92C78.0419 3.06667 78.0486 3.32667 78.0486 3.7C78.0486 4.87333 77.8486 6.15333 77.4486 7.54C77.2753 8.11333 77.1286 8.84 77.0086 9.72C76.8886 10.5867 76.8286 11.4867 76.8286 12.42C76.8286 13.1533 76.8353 13.6 76.8486 13.76C76.6086 13.76 76.4753 13.7733 76.4486 13.8C76.4219 13.8133 76.3886 13.82 76.3486 13.82ZM76.3486 16.08C76.1486 16.08 75.9886 16 75.8686 15.84C75.7219 15.7067 75.6486 15.54 75.6486 15.34C75.6486 15.1533 75.7286 14.98 75.8886 14.82C76.0486 14.6467 76.2286 14.56 76.4286 14.56C76.5886 14.56 76.7486 14.6467 76.9086 14.82C77.0686 14.9933 77.1486 15.16 77.1486 15.32C77.1486 15.8267 76.8819 16.08 76.3486 16.08Z" fill="white"/>
</svg>
